<mxfile host="app.diagrams.net" modified="2022-12-18T08:36:53.888Z" agent="5.0 (Macintosh; Intel Mac OS X 10_15_6) AppleWebKit/605.1.15 (KHTML, like Gecko) Version/15.6.1 Safari/605.1.15" etag="EFMaxsHFJ_1Phg6gpH0S" version="20.6.2" type="github">
  <diagram id="vX2AkL9fInGtAGcGWy8X" name="Page-1">
    <mxGraphModel dx="2780" dy="3262" grid="0" gridSize="10" guides="1" tooltips="1" connect="1" arrows="1" fold="1" page="0" pageScale="1" pageWidth="827" pageHeight="1169" math="0" shadow="0">
      <root>
        <mxCell id="0" />
        <mxCell id="1" parent="0" />
        <mxCell id="8j0XmkPAeqqN_narEKFB-81" value="" style="shape=stencil(fZbdcgIhDIWfZm8zQAg/17Z9j85U606tdqz9e/tmZ0c0uJ47xP0I5JwEBl59bp8/1kNwn6fj4W39M76ctgM/DCGM++36OJ50NPDjwKvN4bh+PR6+9i/z74/n6ctp9H74nlb4nbmSKZeJCu5vngmZ6jzzNAO7cX8FVKEsBuBKrgKg9oAE8gkCbLeUhEoEQKSUDZDLeWYRKIl8MEDRmHwfyBrBG6Amyu4+kDxxMoB3jhwgYu7TVAsVkFcWCs4CTBEoF4RctKeOxHIf8IXYpikHikAIf+MNUW94AGSSaoAoFIE3AlOyeWU+p2E5S9yfQZcQILVuQOwZdJNoS9Ls3wA5u2XZTIHECqeJ9kDpSaauRiNVcAY1QhdBzeLBli5WazpkSsBLV25uRaqWRyFawTQzRRIQYirJzq5atkBqLfouwqUxLBepthWb10vrWZY6UOAeyKCCtDV625mm9gmUC4Wc3VLJMMIE1BsA2FW9JraVlQB7n3c9oMKhCLEvIM1zBPZ25/umNQ1tVEC2G+fFCC8g398O2hNQuQlVu752DBfA+q0ptnqO5JFmeuIuo9DY7KjY71UxdJV4EntifPWorW++R/dC4t7V3DlIB5cHx2bc7eb3yvX//QNFp+bHDT/+Aw==);lineShape=1;fontSize=16;" parent="1" vertex="1">
          <mxGeometry x="-424.5877525500373" y="449.4235576284909" width="7.188522726331274" height="7.17728648670415" as="geometry" />
        </mxCell>
        <mxCell id="8j0XmkPAeqqN_narEKFB-157" value="Event_type" style="shape=table;startSize=30;container=1;collapsible=1;childLayout=tableLayout;fixedRows=1;rowLines=0;fontStyle=1;align=center;resizeLast=1;fontSize=16;" parent="1" vertex="1">
          <mxGeometry x="1089" y="-1417" width="153" height="98" as="geometry" />
        </mxCell>
        <mxCell id="8j0XmkPAeqqN_narEKFB-158" value="" style="shape=tableRow;horizontal=0;startSize=0;swimlaneHead=0;swimlaneBody=0;fillColor=none;collapsible=0;dropTarget=0;points=[[0,0.5],[1,0.5]];portConstraint=eastwest;top=0;left=0;right=0;bottom=1;fontSize=16;" parent="8j0XmkPAeqqN_narEKFB-157" vertex="1">
          <mxGeometry y="30" width="153" height="38" as="geometry" />
        </mxCell>
        <mxCell id="8j0XmkPAeqqN_narEKFB-159" value="PK" style="shape=partialRectangle;connectable=0;fillColor=none;top=0;left=0;bottom=0;right=0;fontStyle=1;overflow=hidden;fontSize=16;" parent="8j0XmkPAeqqN_narEKFB-158" vertex="1">
          <mxGeometry width="30" height="38" as="geometry">
            <mxRectangle width="30" height="38" as="alternateBounds" />
          </mxGeometry>
        </mxCell>
        <mxCell id="8j0XmkPAeqqN_narEKFB-160" value="id INT" style="shape=partialRectangle;connectable=0;fillColor=none;top=0;left=0;bottom=0;right=0;align=left;spacingLeft=6;fontStyle=5;overflow=hidden;fontSize=16;" parent="8j0XmkPAeqqN_narEKFB-158" vertex="1">
          <mxGeometry x="30" width="123" height="38" as="geometry">
            <mxRectangle width="123" height="38" as="alternateBounds" />
          </mxGeometry>
        </mxCell>
        <mxCell id="8j0XmkPAeqqN_narEKFB-161" value="" style="shape=tableRow;horizontal=0;startSize=0;swimlaneHead=0;swimlaneBody=0;fillColor=none;collapsible=0;dropTarget=0;points=[[0,0.5],[1,0.5]];portConstraint=eastwest;top=0;left=0;right=0;bottom=0;fontSize=16;" parent="8j0XmkPAeqqN_narEKFB-157" vertex="1">
          <mxGeometry y="68" width="153" height="30" as="geometry" />
        </mxCell>
        <mxCell id="8j0XmkPAeqqN_narEKFB-162" value="" style="shape=partialRectangle;connectable=0;fillColor=none;top=0;left=0;bottom=0;right=0;editable=1;overflow=hidden;fontSize=16;" parent="8j0XmkPAeqqN_narEKFB-161" vertex="1">
          <mxGeometry width="30" height="30" as="geometry">
            <mxRectangle width="30" height="30" as="alternateBounds" />
          </mxGeometry>
        </mxCell>
        <mxCell id="8j0XmkPAeqqN_narEKFB-163" value="titel VARCHAR" style="shape=partialRectangle;connectable=0;fillColor=none;top=0;left=0;bottom=0;right=0;align=left;spacingLeft=6;overflow=hidden;fontSize=16;" parent="8j0XmkPAeqqN_narEKFB-161" vertex="1">
          <mxGeometry x="30" width="123" height="30" as="geometry">
            <mxRectangle width="123" height="30" as="alternateBounds" />
          </mxGeometry>
        </mxCell>
        <mxCell id="8j0XmkPAeqqN_narEKFB-187" value="User" style="shape=table;startSize=30;container=1;collapsible=1;childLayout=tableLayout;fixedRows=1;rowLines=0;fontStyle=1;align=center;resizeLast=1;fontSize=16;" parent="1" vertex="1">
          <mxGeometry x="-359" y="-1637" width="281" height="232" as="geometry" />
        </mxCell>
        <mxCell id="8j0XmkPAeqqN_narEKFB-188" value="" style="shape=tableRow;horizontal=0;startSize=0;swimlaneHead=0;swimlaneBody=0;fillColor=none;collapsible=0;dropTarget=0;points=[[0,0.5],[1,0.5]];portConstraint=eastwest;top=0;left=0;right=0;bottom=1;fontSize=16;" parent="8j0XmkPAeqqN_narEKFB-187" vertex="1">
          <mxGeometry y="30" width="281" height="30" as="geometry" />
        </mxCell>
        <mxCell id="8j0XmkPAeqqN_narEKFB-189" value="PK" style="shape=partialRectangle;connectable=0;fillColor=none;top=0;left=0;bottom=0;right=0;fontStyle=1;overflow=hidden;fontSize=16;" parent="8j0XmkPAeqqN_narEKFB-188" vertex="1">
          <mxGeometry width="30" height="30" as="geometry">
            <mxRectangle width="30" height="30" as="alternateBounds" />
          </mxGeometry>
        </mxCell>
        <mxCell id="8j0XmkPAeqqN_narEKFB-190" value="id INT" style="shape=partialRectangle;connectable=0;fillColor=none;top=0;left=0;bottom=0;right=0;align=left;spacingLeft=6;fontStyle=5;overflow=hidden;fontSize=16;" parent="8j0XmkPAeqqN_narEKFB-188" vertex="1">
          <mxGeometry x="30" width="251" height="30" as="geometry">
            <mxRectangle width="251" height="30" as="alternateBounds" />
          </mxGeometry>
        </mxCell>
        <mxCell id="8j0XmkPAeqqN_narEKFB-191" value="" style="shape=tableRow;horizontal=0;startSize=0;swimlaneHead=0;swimlaneBody=0;fillColor=none;collapsible=0;dropTarget=0;points=[[0,0.5],[1,0.5]];portConstraint=eastwest;top=0;left=0;right=0;bottom=0;fontSize=16;" parent="8j0XmkPAeqqN_narEKFB-187" vertex="1">
          <mxGeometry y="60" width="281" height="30" as="geometry" />
        </mxCell>
        <mxCell id="8j0XmkPAeqqN_narEKFB-192" value="" style="shape=partialRectangle;connectable=0;fillColor=none;top=0;left=0;bottom=0;right=0;editable=1;overflow=hidden;fontSize=16;" parent="8j0XmkPAeqqN_narEKFB-191" vertex="1">
          <mxGeometry width="30" height="30" as="geometry">
            <mxRectangle width="30" height="30" as="alternateBounds" />
          </mxGeometry>
        </mxCell>
        <mxCell id="8j0XmkPAeqqN_narEKFB-193" value="first_name VARCHAR" style="shape=partialRectangle;connectable=0;fillColor=none;top=0;left=0;bottom=0;right=0;align=left;spacingLeft=6;overflow=hidden;fontSize=16;" parent="8j0XmkPAeqqN_narEKFB-191" vertex="1">
          <mxGeometry x="30" width="251" height="30" as="geometry">
            <mxRectangle width="251" height="30" as="alternateBounds" />
          </mxGeometry>
        </mxCell>
        <mxCell id="8j0XmkPAeqqN_narEKFB-194" value="" style="shape=tableRow;horizontal=0;startSize=0;swimlaneHead=0;swimlaneBody=0;fillColor=none;collapsible=0;dropTarget=0;points=[[0,0.5],[1,0.5]];portConstraint=eastwest;top=0;left=0;right=0;bottom=0;fontSize=16;" parent="8j0XmkPAeqqN_narEKFB-187" vertex="1">
          <mxGeometry y="90" width="281" height="30" as="geometry" />
        </mxCell>
        <mxCell id="8j0XmkPAeqqN_narEKFB-195" value="" style="shape=partialRectangle;connectable=0;fillColor=none;top=0;left=0;bottom=0;right=0;editable=1;overflow=hidden;fontSize=16;" parent="8j0XmkPAeqqN_narEKFB-194" vertex="1">
          <mxGeometry width="30" height="30" as="geometry">
            <mxRectangle width="30" height="30" as="alternateBounds" />
          </mxGeometry>
        </mxCell>
        <mxCell id="8j0XmkPAeqqN_narEKFB-196" value="second_name VARCHAR" style="shape=partialRectangle;connectable=0;fillColor=none;top=0;left=0;bottom=0;right=0;align=left;spacingLeft=6;overflow=hidden;fontSize=16;" parent="8j0XmkPAeqqN_narEKFB-194" vertex="1">
          <mxGeometry x="30" width="251" height="30" as="geometry">
            <mxRectangle width="251" height="30" as="alternateBounds" />
          </mxGeometry>
        </mxCell>
        <mxCell id="8j0XmkPAeqqN_narEKFB-197" value="" style="shape=tableRow;horizontal=0;startSize=0;swimlaneHead=0;swimlaneBody=0;fillColor=none;collapsible=0;dropTarget=0;points=[[0,0.5],[1,0.5]];portConstraint=eastwest;top=0;left=0;right=0;bottom=0;fontSize=16;" parent="8j0XmkPAeqqN_narEKFB-187" vertex="1">
          <mxGeometry y="120" width="281" height="29" as="geometry" />
        </mxCell>
        <mxCell id="8j0XmkPAeqqN_narEKFB-198" value="" style="shape=partialRectangle;connectable=0;fillColor=none;top=0;left=0;bottom=0;right=0;editable=1;overflow=hidden;fontSize=16;" parent="8j0XmkPAeqqN_narEKFB-197" vertex="1">
          <mxGeometry width="30" height="29" as="geometry">
            <mxRectangle width="30" height="29" as="alternateBounds" />
          </mxGeometry>
        </mxCell>
        <mxCell id="8j0XmkPAeqqN_narEKFB-199" value="birthdate TIMESTAMP" style="shape=partialRectangle;connectable=0;fillColor=none;top=0;left=0;bottom=0;right=0;align=left;spacingLeft=6;overflow=hidden;fontSize=16;" parent="8j0XmkPAeqqN_narEKFB-197" vertex="1">
          <mxGeometry x="30" width="251" height="29" as="geometry">
            <mxRectangle width="251" height="29" as="alternateBounds" />
          </mxGeometry>
        </mxCell>
        <mxCell id="8j0XmkPAeqqN_narEKFB-245" style="shape=tableRow;horizontal=0;startSize=0;swimlaneHead=0;swimlaneBody=0;fillColor=none;collapsible=0;dropTarget=0;points=[[0,0.5],[1,0.5]];portConstraint=eastwest;top=0;left=0;right=0;bottom=0;fontSize=16;" parent="8j0XmkPAeqqN_narEKFB-187" vertex="1">
          <mxGeometry y="149" width="281" height="27" as="geometry" />
        </mxCell>
        <mxCell id="8j0XmkPAeqqN_narEKFB-246" style="shape=partialRectangle;connectable=0;fillColor=none;top=0;left=0;bottom=0;right=0;editable=1;overflow=hidden;fontSize=16;" parent="8j0XmkPAeqqN_narEKFB-245" vertex="1">
          <mxGeometry width="30" height="27" as="geometry">
            <mxRectangle width="30" height="27" as="alternateBounds" />
          </mxGeometry>
        </mxCell>
        <mxCell id="8j0XmkPAeqqN_narEKFB-247" value="about_user TEXT" style="shape=partialRectangle;connectable=0;fillColor=none;top=0;left=0;bottom=0;right=0;align=left;spacingLeft=6;overflow=hidden;fontSize=16;" parent="8j0XmkPAeqqN_narEKFB-245" vertex="1">
          <mxGeometry x="30" width="251" height="27" as="geometry">
            <mxRectangle width="251" height="27" as="alternateBounds" />
          </mxGeometry>
        </mxCell>
        <mxCell id="aRnM5LxiaBGi5ICMTZ9n-6" style="shape=tableRow;horizontal=0;startSize=0;swimlaneHead=0;swimlaneBody=0;fillColor=none;collapsible=0;dropTarget=0;points=[[0,0.5],[1,0.5]];portConstraint=eastwest;top=0;left=0;right=0;bottom=0;fontSize=16;" vertex="1" parent="8j0XmkPAeqqN_narEKFB-187">
          <mxGeometry y="176" width="281" height="27" as="geometry" />
        </mxCell>
        <mxCell id="aRnM5LxiaBGi5ICMTZ9n-7" style="shape=partialRectangle;connectable=0;fillColor=none;top=0;left=0;bottom=0;right=0;editable=1;overflow=hidden;fontSize=16;" vertex="1" parent="aRnM5LxiaBGi5ICMTZ9n-6">
          <mxGeometry width="30" height="27" as="geometry">
            <mxRectangle width="30" height="27" as="alternateBounds" />
          </mxGeometry>
        </mxCell>
        <mxCell id="aRnM5LxiaBGi5ICMTZ9n-8" value="telegram_username VARCHAR" style="shape=partialRectangle;connectable=0;fillColor=none;top=0;left=0;bottom=0;right=0;align=left;spacingLeft=6;overflow=hidden;fontSize=16;" vertex="1" parent="aRnM5LxiaBGi5ICMTZ9n-6">
          <mxGeometry x="30" width="251" height="27" as="geometry">
            <mxRectangle width="251" height="27" as="alternateBounds" />
          </mxGeometry>
        </mxCell>
        <mxCell id="aRnM5LxiaBGi5ICMTZ9n-3" style="shape=tableRow;horizontal=0;startSize=0;swimlaneHead=0;swimlaneBody=0;fillColor=none;collapsible=0;dropTarget=0;points=[[0,0.5],[1,0.5]];portConstraint=eastwest;top=0;left=0;right=0;bottom=0;fontSize=16;" vertex="1" parent="8j0XmkPAeqqN_narEKFB-187">
          <mxGeometry y="203" width="281" height="27" as="geometry" />
        </mxCell>
        <mxCell id="aRnM5LxiaBGi5ICMTZ9n-4" style="shape=partialRectangle;connectable=0;fillColor=none;top=0;left=0;bottom=0;right=0;editable=1;overflow=hidden;fontSize=16;" vertex="1" parent="aRnM5LxiaBGi5ICMTZ9n-3">
          <mxGeometry width="30" height="27" as="geometry">
            <mxRectangle width="30" height="27" as="alternateBounds" />
          </mxGeometry>
        </mxCell>
        <mxCell id="aRnM5LxiaBGi5ICMTZ9n-5" value="rating INT" style="shape=partialRectangle;connectable=0;fillColor=none;top=0;left=0;bottom=0;right=0;align=left;spacingLeft=6;overflow=hidden;fontSize=16;" vertex="1" parent="aRnM5LxiaBGi5ICMTZ9n-3">
          <mxGeometry x="30" width="251" height="27" as="geometry">
            <mxRectangle width="251" height="27" as="alternateBounds" />
          </mxGeometry>
        </mxCell>
        <mxCell id="8j0XmkPAeqqN_narEKFB-213" value="Message" style="shape=table;startSize=30;container=1;collapsible=1;childLayout=tableLayout;fixedRows=1;rowLines=0;fontStyle=1;align=center;resizeLast=1;fontSize=16;" parent="1" vertex="1">
          <mxGeometry x="-700" y="-1723" width="222" height="147" as="geometry" />
        </mxCell>
        <mxCell id="8j0XmkPAeqqN_narEKFB-214" value="" style="shape=tableRow;horizontal=0;startSize=0;swimlaneHead=0;swimlaneBody=0;fillColor=none;collapsible=0;dropTarget=0;points=[[0,0.5],[1,0.5]];portConstraint=eastwest;top=0;left=0;right=0;bottom=1;fontSize=16;" parent="8j0XmkPAeqqN_narEKFB-213" vertex="1">
          <mxGeometry y="30" width="222" height="30" as="geometry" />
        </mxCell>
        <mxCell id="8j0XmkPAeqqN_narEKFB-215" value="PK" style="shape=partialRectangle;connectable=0;fillColor=none;top=0;left=0;bottom=0;right=0;fontStyle=1;overflow=hidden;fontSize=16;" parent="8j0XmkPAeqqN_narEKFB-214" vertex="1">
          <mxGeometry width="30" height="30" as="geometry">
            <mxRectangle width="30" height="30" as="alternateBounds" />
          </mxGeometry>
        </mxCell>
        <mxCell id="8j0XmkPAeqqN_narEKFB-216" value="id INT" style="shape=partialRectangle;connectable=0;fillColor=none;top=0;left=0;bottom=0;right=0;align=left;spacingLeft=6;fontStyle=5;overflow=hidden;fontSize=16;" parent="8j0XmkPAeqqN_narEKFB-214" vertex="1">
          <mxGeometry x="30" width="192" height="30" as="geometry">
            <mxRectangle width="192" height="30" as="alternateBounds" />
          </mxGeometry>
        </mxCell>
        <mxCell id="8j0XmkPAeqqN_narEKFB-220" value="" style="shape=tableRow;horizontal=0;startSize=0;swimlaneHead=0;swimlaneBody=0;fillColor=none;collapsible=0;dropTarget=0;points=[[0,0.5],[1,0.5]];portConstraint=eastwest;top=0;left=0;right=0;bottom=0;fontSize=16;" parent="8j0XmkPAeqqN_narEKFB-213" vertex="1">
          <mxGeometry y="60" width="222" height="30" as="geometry" />
        </mxCell>
        <mxCell id="8j0XmkPAeqqN_narEKFB-221" value="" style="shape=partialRectangle;connectable=0;fillColor=none;top=0;left=0;bottom=0;right=0;editable=1;overflow=hidden;fontSize=16;" parent="8j0XmkPAeqqN_narEKFB-220" vertex="1">
          <mxGeometry width="30" height="30" as="geometry">
            <mxRectangle width="30" height="30" as="alternateBounds" />
          </mxGeometry>
        </mxCell>
        <mxCell id="8j0XmkPAeqqN_narEKFB-222" value="text TEXT" style="shape=partialRectangle;connectable=0;fillColor=none;top=0;left=0;bottom=0;right=0;align=left;spacingLeft=6;overflow=hidden;fontSize=16;" parent="8j0XmkPAeqqN_narEKFB-220" vertex="1">
          <mxGeometry x="30" width="192" height="30" as="geometry">
            <mxRectangle width="192" height="30" as="alternateBounds" />
          </mxGeometry>
        </mxCell>
        <mxCell id="8j0XmkPAeqqN_narEKFB-223" value="" style="shape=tableRow;horizontal=0;startSize=0;swimlaneHead=0;swimlaneBody=0;fillColor=none;collapsible=0;dropTarget=0;points=[[0,0.5],[1,0.5]];portConstraint=eastwest;top=0;left=0;right=0;bottom=0;fontSize=16;" parent="8j0XmkPAeqqN_narEKFB-213" vertex="1">
          <mxGeometry y="90" width="222" height="26" as="geometry" />
        </mxCell>
        <mxCell id="8j0XmkPAeqqN_narEKFB-224" value="" style="shape=partialRectangle;connectable=0;fillColor=none;top=0;left=0;bottom=0;right=0;editable=1;overflow=hidden;fontSize=16;" parent="8j0XmkPAeqqN_narEKFB-223" vertex="1">
          <mxGeometry width="30" height="26" as="geometry">
            <mxRectangle width="30" height="26" as="alternateBounds" />
          </mxGeometry>
        </mxCell>
        <mxCell id="8j0XmkPAeqqN_narEKFB-225" value="created_at TIMESTAMP " style="shape=partialRectangle;connectable=0;fillColor=none;top=0;left=0;bottom=0;right=0;align=left;spacingLeft=6;overflow=hidden;fontSize=16;" parent="8j0XmkPAeqqN_narEKFB-223" vertex="1">
          <mxGeometry x="30" width="192" height="26" as="geometry">
            <mxRectangle width="192" height="26" as="alternateBounds" />
          </mxGeometry>
        </mxCell>
        <mxCell id="8j0XmkPAeqqN_narEKFB-226" style="shape=tableRow;horizontal=0;startSize=0;swimlaneHead=0;swimlaneBody=0;fillColor=none;collapsible=0;dropTarget=0;points=[[0,0.5],[1,0.5]];portConstraint=eastwest;top=0;left=0;right=0;bottom=0;fontSize=16;" parent="8j0XmkPAeqqN_narEKFB-213" vertex="1">
          <mxGeometry y="116" width="222" height="30" as="geometry" />
        </mxCell>
        <mxCell id="8j0XmkPAeqqN_narEKFB-227" value="fk" style="shape=partialRectangle;connectable=0;fillColor=none;top=0;left=0;bottom=0;right=0;editable=1;overflow=hidden;fontSize=16;" parent="8j0XmkPAeqqN_narEKFB-226" vertex="1">
          <mxGeometry width="30" height="30" as="geometry">
            <mxRectangle width="30" height="30" as="alternateBounds" />
          </mxGeometry>
        </mxCell>
        <mxCell id="8j0XmkPAeqqN_narEKFB-228" value="profile_id INT" style="shape=partialRectangle;connectable=0;fillColor=none;top=0;left=0;bottom=0;right=0;align=left;spacingLeft=6;overflow=hidden;fontSize=16;" parent="8j0XmkPAeqqN_narEKFB-226" vertex="1">
          <mxGeometry x="30" width="192" height="30" as="geometry">
            <mxRectangle width="192" height="30" as="alternateBounds" />
          </mxGeometry>
        </mxCell>
        <mxCell id="8j0XmkPAeqqN_narEKFB-232" value="Subscribe" style="shape=table;startSize=30;container=1;collapsible=1;childLayout=tableLayout;fixedRows=1;rowLines=0;fontStyle=1;align=center;resizeLast=1;fontSize=16;" parent="1" vertex="1">
          <mxGeometry x="126" y="-1104" width="299" height="210" as="geometry" />
        </mxCell>
        <mxCell id="8j0XmkPAeqqN_narEKFB-233" value="" style="shape=tableRow;horizontal=0;startSize=0;swimlaneHead=0;swimlaneBody=0;fillColor=none;collapsible=0;dropTarget=0;points=[[0,0.5],[1,0.5]];portConstraint=eastwest;top=0;left=0;right=0;bottom=1;fontSize=16;" parent="8j0XmkPAeqqN_narEKFB-232" vertex="1">
          <mxGeometry y="30" width="299" height="30" as="geometry" />
        </mxCell>
        <mxCell id="8j0XmkPAeqqN_narEKFB-234" value="PK" style="shape=partialRectangle;connectable=0;fillColor=none;top=0;left=0;bottom=0;right=0;fontStyle=1;overflow=hidden;fontSize=16;" parent="8j0XmkPAeqqN_narEKFB-233" vertex="1">
          <mxGeometry width="30" height="30" as="geometry">
            <mxRectangle width="30" height="30" as="alternateBounds" />
          </mxGeometry>
        </mxCell>
        <mxCell id="8j0XmkPAeqqN_narEKFB-235" value="id INT" style="shape=partialRectangle;connectable=0;fillColor=none;top=0;left=0;bottom=0;right=0;align=left;spacingLeft=6;fontStyle=5;overflow=hidden;fontSize=16;" parent="8j0XmkPAeqqN_narEKFB-233" vertex="1">
          <mxGeometry x="30" width="269" height="30" as="geometry">
            <mxRectangle width="269" height="30" as="alternateBounds" />
          </mxGeometry>
        </mxCell>
        <mxCell id="8j0XmkPAeqqN_narEKFB-236" value="" style="shape=tableRow;horizontal=0;startSize=0;swimlaneHead=0;swimlaneBody=0;fillColor=none;collapsible=0;dropTarget=0;points=[[0,0.5],[1,0.5]];portConstraint=eastwest;top=0;left=0;right=0;bottom=0;fontSize=16;" parent="8j0XmkPAeqqN_narEKFB-232" vertex="1">
          <mxGeometry y="60" width="299" height="30" as="geometry" />
        </mxCell>
        <mxCell id="8j0XmkPAeqqN_narEKFB-237" value="" style="shape=partialRectangle;connectable=0;fillColor=none;top=0;left=0;bottom=0;right=0;editable=1;overflow=hidden;fontSize=16;" parent="8j0XmkPAeqqN_narEKFB-236" vertex="1">
          <mxGeometry width="30" height="30" as="geometry">
            <mxRectangle width="30" height="30" as="alternateBounds" />
          </mxGeometry>
        </mxCell>
        <mxCell id="8j0XmkPAeqqN_narEKFB-238" value="hackathon_subscribe BOOLEAN" style="shape=partialRectangle;connectable=0;fillColor=none;top=0;left=0;bottom=0;right=0;align=left;spacingLeft=6;overflow=hidden;fontSize=16;" parent="8j0XmkPAeqqN_narEKFB-236" vertex="1">
          <mxGeometry x="30" width="269" height="30" as="geometry">
            <mxRectangle width="269" height="30" as="alternateBounds" />
          </mxGeometry>
        </mxCell>
        <mxCell id="8j0XmkPAeqqN_narEKFB-239" value="" style="shape=tableRow;horizontal=0;startSize=0;swimlaneHead=0;swimlaneBody=0;fillColor=none;collapsible=0;dropTarget=0;points=[[0,0.5],[1,0.5]];portConstraint=eastwest;top=0;left=0;right=0;bottom=0;fontSize=16;" parent="8j0XmkPAeqqN_narEKFB-232" vertex="1">
          <mxGeometry y="90" width="299" height="30" as="geometry" />
        </mxCell>
        <mxCell id="8j0XmkPAeqqN_narEKFB-240" value="" style="shape=partialRectangle;connectable=0;fillColor=none;top=0;left=0;bottom=0;right=0;editable=1;overflow=hidden;fontSize=16;" parent="8j0XmkPAeqqN_narEKFB-239" vertex="1">
          <mxGeometry width="30" height="30" as="geometry">
            <mxRectangle width="30" height="30" as="alternateBounds" />
          </mxGeometry>
        </mxCell>
        <mxCell id="8j0XmkPAeqqN_narEKFB-241" value="lecture_subscribe BOOLEAN" style="shape=partialRectangle;connectable=0;fillColor=none;top=0;left=0;bottom=0;right=0;align=left;spacingLeft=6;overflow=hidden;fontSize=16;" parent="8j0XmkPAeqqN_narEKFB-239" vertex="1">
          <mxGeometry x="30" width="269" height="30" as="geometry">
            <mxRectangle width="269" height="30" as="alternateBounds" />
          </mxGeometry>
        </mxCell>
        <mxCell id="8j0XmkPAeqqN_narEKFB-242" value="" style="shape=tableRow;horizontal=0;startSize=0;swimlaneHead=0;swimlaneBody=0;fillColor=none;collapsible=0;dropTarget=0;points=[[0,0.5],[1,0.5]];portConstraint=eastwest;top=0;left=0;right=0;bottom=0;fontSize=16;" parent="8j0XmkPAeqqN_narEKFB-232" vertex="1">
          <mxGeometry y="120" width="299" height="30" as="geometry" />
        </mxCell>
        <mxCell id="8j0XmkPAeqqN_narEKFB-243" value="" style="shape=partialRectangle;connectable=0;fillColor=none;top=0;left=0;bottom=0;right=0;editable=1;overflow=hidden;fontSize=16;" parent="8j0XmkPAeqqN_narEKFB-242" vertex="1">
          <mxGeometry width="30" height="30" as="geometry">
            <mxRectangle width="30" height="30" as="alternateBounds" />
          </mxGeometry>
        </mxCell>
        <mxCell id="8j0XmkPAeqqN_narEKFB-244" value="meet_up_subscribe BOOLEAN" style="shape=partialRectangle;connectable=0;fillColor=none;top=0;left=0;bottom=0;right=0;align=left;spacingLeft=6;overflow=hidden;fontSize=16;" parent="8j0XmkPAeqqN_narEKFB-242" vertex="1">
          <mxGeometry x="30" width="269" height="30" as="geometry">
            <mxRectangle width="269" height="30" as="alternateBounds" />
          </mxGeometry>
        </mxCell>
        <mxCell id="8j0XmkPAeqqN_narEKFB-248" style="shape=tableRow;horizontal=0;startSize=0;swimlaneHead=0;swimlaneBody=0;fillColor=none;collapsible=0;dropTarget=0;points=[[0,0.5],[1,0.5]];portConstraint=eastwest;top=0;left=0;right=0;bottom=0;fontSize=16;" parent="8j0XmkPAeqqN_narEKFB-232" vertex="1">
          <mxGeometry y="150" width="299" height="30" as="geometry" />
        </mxCell>
        <mxCell id="8j0XmkPAeqqN_narEKFB-249" style="shape=partialRectangle;connectable=0;fillColor=none;top=0;left=0;bottom=0;right=0;editable=1;overflow=hidden;fontSize=16;" parent="8j0XmkPAeqqN_narEKFB-248" vertex="1">
          <mxGeometry width="30" height="30" as="geometry">
            <mxRectangle width="30" height="30" as="alternateBounds" />
          </mxGeometry>
        </mxCell>
        <mxCell id="8j0XmkPAeqqN_narEKFB-250" value="vacancy_subscribe BOOLEAN" style="shape=partialRectangle;connectable=0;fillColor=none;top=0;left=0;bottom=0;right=0;align=left;spacingLeft=6;overflow=hidden;fontSize=16;" parent="8j0XmkPAeqqN_narEKFB-248" vertex="1">
          <mxGeometry x="30" width="269" height="30" as="geometry">
            <mxRectangle width="269" height="30" as="alternateBounds" />
          </mxGeometry>
        </mxCell>
        <mxCell id="8j0XmkPAeqqN_narEKFB-251" style="shape=tableRow;horizontal=0;startSize=0;swimlaneHead=0;swimlaneBody=0;fillColor=none;collapsible=0;dropTarget=0;points=[[0,0.5],[1,0.5]];portConstraint=eastwest;top=0;left=0;right=0;bottom=0;fontSize=16;" parent="8j0XmkPAeqqN_narEKFB-232" vertex="1">
          <mxGeometry y="180" width="299" height="30" as="geometry" />
        </mxCell>
        <mxCell id="8j0XmkPAeqqN_narEKFB-252" value="fk" style="shape=partialRectangle;connectable=0;fillColor=none;top=0;left=0;bottom=0;right=0;editable=1;overflow=hidden;fontSize=16;" parent="8j0XmkPAeqqN_narEKFB-251" vertex="1">
          <mxGeometry width="30" height="30" as="geometry">
            <mxRectangle width="30" height="30" as="alternateBounds" />
          </mxGeometry>
        </mxCell>
        <mxCell id="8j0XmkPAeqqN_narEKFB-253" value="user_id INT" style="shape=partialRectangle;connectable=0;fillColor=none;top=0;left=0;bottom=0;right=0;align=left;spacingLeft=6;overflow=hidden;fontSize=16;" parent="8j0XmkPAeqqN_narEKFB-251" vertex="1">
          <mxGeometry x="30" width="269" height="30" as="geometry">
            <mxRectangle width="269" height="30" as="alternateBounds" />
          </mxGeometry>
        </mxCell>
        <mxCell id="8j0XmkPAeqqN_narEKFB-257" value="User_event" style="shape=table;startSize=36;container=1;collapsible=1;childLayout=tableLayout;fixedRows=1;rowLines=0;fontStyle=1;align=center;resizeLast=1;fontSize=16;" parent="1" vertex="1">
          <mxGeometry x="164" y="-1783" width="130" height="126" as="geometry" />
        </mxCell>
        <mxCell id="8j0XmkPAeqqN_narEKFB-258" value="" style="shape=tableRow;horizontal=0;startSize=0;swimlaneHead=0;swimlaneBody=0;fillColor=none;collapsible=0;dropTarget=0;points=[[0,0.5],[1,0.5]];portConstraint=eastwest;top=0;left=0;right=0;bottom=1;fontSize=16;" parent="8j0XmkPAeqqN_narEKFB-257" vertex="1">
          <mxGeometry y="36" width="130" height="30" as="geometry" />
        </mxCell>
        <mxCell id="8j0XmkPAeqqN_narEKFB-259" value="PK" style="shape=partialRectangle;connectable=0;fillColor=none;top=0;left=0;bottom=0;right=0;fontStyle=1;overflow=hidden;fontSize=16;" parent="8j0XmkPAeqqN_narEKFB-258" vertex="1">
          <mxGeometry width="30" height="30" as="geometry">
            <mxRectangle width="30" height="30" as="alternateBounds" />
          </mxGeometry>
        </mxCell>
        <mxCell id="8j0XmkPAeqqN_narEKFB-260" value="id INT" style="shape=partialRectangle;connectable=0;fillColor=none;top=0;left=0;bottom=0;right=0;align=left;spacingLeft=6;fontStyle=5;overflow=hidden;fontSize=16;" parent="8j0XmkPAeqqN_narEKFB-258" vertex="1">
          <mxGeometry x="30" width="100" height="30" as="geometry">
            <mxRectangle width="100" height="30" as="alternateBounds" />
          </mxGeometry>
        </mxCell>
        <mxCell id="8j0XmkPAeqqN_narEKFB-261" value="" style="shape=tableRow;horizontal=0;startSize=0;swimlaneHead=0;swimlaneBody=0;fillColor=none;collapsible=0;dropTarget=0;points=[[0,0.5],[1,0.5]];portConstraint=eastwest;top=0;left=0;right=0;bottom=0;fontSize=16;" parent="8j0XmkPAeqqN_narEKFB-257" vertex="1">
          <mxGeometry y="66" width="130" height="30" as="geometry" />
        </mxCell>
        <mxCell id="8j0XmkPAeqqN_narEKFB-262" value="fk" style="shape=partialRectangle;connectable=0;fillColor=none;top=0;left=0;bottom=0;right=0;editable=1;overflow=hidden;fontSize=16;" parent="8j0XmkPAeqqN_narEKFB-261" vertex="1">
          <mxGeometry width="30" height="30" as="geometry">
            <mxRectangle width="30" height="30" as="alternateBounds" />
          </mxGeometry>
        </mxCell>
        <mxCell id="8j0XmkPAeqqN_narEKFB-263" value="event_id" style="shape=partialRectangle;connectable=0;fillColor=none;top=0;left=0;bottom=0;right=0;align=left;spacingLeft=6;overflow=hidden;fontSize=16;" parent="8j0XmkPAeqqN_narEKFB-261" vertex="1">
          <mxGeometry x="30" width="100" height="30" as="geometry">
            <mxRectangle width="100" height="30" as="alternateBounds" />
          </mxGeometry>
        </mxCell>
        <mxCell id="8j0XmkPAeqqN_narEKFB-264" value="" style="shape=tableRow;horizontal=0;startSize=0;swimlaneHead=0;swimlaneBody=0;fillColor=none;collapsible=0;dropTarget=0;points=[[0,0.5],[1,0.5]];portConstraint=eastwest;top=0;left=0;right=0;bottom=0;fontSize=16;" parent="8j0XmkPAeqqN_narEKFB-257" vertex="1">
          <mxGeometry y="96" width="130" height="30" as="geometry" />
        </mxCell>
        <mxCell id="8j0XmkPAeqqN_narEKFB-265" value="fk" style="shape=partialRectangle;connectable=0;fillColor=none;top=0;left=0;bottom=0;right=0;editable=1;overflow=hidden;fontSize=16;" parent="8j0XmkPAeqqN_narEKFB-264" vertex="1">
          <mxGeometry width="30" height="30" as="geometry">
            <mxRectangle width="30" height="30" as="alternateBounds" />
          </mxGeometry>
        </mxCell>
        <mxCell id="8j0XmkPAeqqN_narEKFB-266" value="user_id" style="shape=partialRectangle;connectable=0;fillColor=none;top=0;left=0;bottom=0;right=0;align=left;spacingLeft=6;overflow=hidden;fontSize=16;" parent="8j0XmkPAeqqN_narEKFB-264" vertex="1">
          <mxGeometry x="30" width="100" height="30" as="geometry">
            <mxRectangle width="100" height="30" as="alternateBounds" />
          </mxGeometry>
        </mxCell>
        <mxCell id="8j0XmkPAeqqN_narEKFB-271" value="Event" style="shape=table;startSize=30;container=1;collapsible=1;childLayout=tableLayout;fixedRows=1;rowLines=0;fontStyle=1;align=center;resizeLast=1;shadow=0;strokeWidth=1;fontSize=16;" parent="1" vertex="1">
          <mxGeometry x="783" y="-1544" width="226" height="193" as="geometry" />
        </mxCell>
        <mxCell id="8j0XmkPAeqqN_narEKFB-272" value="" style="shape=tableRow;horizontal=0;startSize=0;swimlaneHead=0;swimlaneBody=0;fillColor=none;collapsible=0;dropTarget=0;points=[[0,0.5],[1,0.5]];portConstraint=eastwest;top=0;left=0;right=0;bottom=1;shadow=0;strokeWidth=1;fontSize=16;" parent="8j0XmkPAeqqN_narEKFB-271" vertex="1">
          <mxGeometry y="30" width="226" height="30" as="geometry" />
        </mxCell>
        <mxCell id="8j0XmkPAeqqN_narEKFB-273" value="PK" style="shape=partialRectangle;connectable=0;fillColor=none;top=0;left=0;bottom=0;right=0;fontStyle=1;overflow=hidden;shadow=0;strokeWidth=1;fontSize=16;startSize=30;" parent="8j0XmkPAeqqN_narEKFB-272" vertex="1">
          <mxGeometry width="30" height="30" as="geometry">
            <mxRectangle width="30" height="30" as="alternateBounds" />
          </mxGeometry>
        </mxCell>
        <mxCell id="8j0XmkPAeqqN_narEKFB-274" value="id INT" style="shape=partialRectangle;connectable=0;fillColor=none;top=0;left=0;bottom=0;right=0;align=left;spacingLeft=6;fontStyle=5;overflow=hidden;shadow=0;strokeWidth=1;fontSize=16;startSize=30;" parent="8j0XmkPAeqqN_narEKFB-272" vertex="1">
          <mxGeometry x="30" width="196" height="30" as="geometry">
            <mxRectangle width="196" height="30" as="alternateBounds" />
          </mxGeometry>
        </mxCell>
        <mxCell id="8j0XmkPAeqqN_narEKFB-275" value="" style="shape=tableRow;horizontal=0;startSize=0;swimlaneHead=0;swimlaneBody=0;fillColor=none;collapsible=0;dropTarget=0;points=[[0,0.5],[1,0.5]];portConstraint=eastwest;top=0;left=0;right=0;bottom=0;shadow=0;strokeWidth=1;fontSize=16;" parent="8j0XmkPAeqqN_narEKFB-271" vertex="1">
          <mxGeometry y="60" width="226" height="30" as="geometry" />
        </mxCell>
        <mxCell id="8j0XmkPAeqqN_narEKFB-276" value="" style="shape=partialRectangle;connectable=0;fillColor=none;top=0;left=0;bottom=0;right=0;editable=1;overflow=hidden;shadow=0;strokeWidth=1;fontSize=16;startSize=30;" parent="8j0XmkPAeqqN_narEKFB-275" vertex="1">
          <mxGeometry width="30" height="30" as="geometry">
            <mxRectangle width="30" height="30" as="alternateBounds" />
          </mxGeometry>
        </mxCell>
        <mxCell id="8j0XmkPAeqqN_narEKFB-277" value="title VARCHAR" style="shape=partialRectangle;connectable=0;fillColor=none;top=0;left=0;bottom=0;right=0;align=left;spacingLeft=6;overflow=hidden;shadow=0;strokeWidth=1;fontSize=16;startSize=30;" parent="8j0XmkPAeqqN_narEKFB-275" vertex="1">
          <mxGeometry x="30" width="196" height="30" as="geometry">
            <mxRectangle width="196" height="30" as="alternateBounds" />
          </mxGeometry>
        </mxCell>
        <mxCell id="8j0XmkPAeqqN_narEKFB-278" value="" style="shape=tableRow;horizontal=0;startSize=0;swimlaneHead=0;swimlaneBody=0;fillColor=none;collapsible=0;dropTarget=0;points=[[0,0.5],[1,0.5]];portConstraint=eastwest;top=0;left=0;right=0;bottom=0;shadow=0;strokeWidth=1;fontSize=16;" parent="8j0XmkPAeqqN_narEKFB-271" vertex="1">
          <mxGeometry y="90" width="226" height="30" as="geometry" />
        </mxCell>
        <mxCell id="8j0XmkPAeqqN_narEKFB-279" value="" style="shape=partialRectangle;connectable=0;fillColor=none;top=0;left=0;bottom=0;right=0;editable=1;overflow=hidden;shadow=0;strokeWidth=1;fontSize=16;startSize=30;" parent="8j0XmkPAeqqN_narEKFB-278" vertex="1">
          <mxGeometry width="30" height="30" as="geometry">
            <mxRectangle width="30" height="30" as="alternateBounds" />
          </mxGeometry>
        </mxCell>
        <mxCell id="8j0XmkPAeqqN_narEKFB-280" value="event_date DATE" style="shape=partialRectangle;connectable=0;fillColor=none;top=0;left=0;bottom=0;right=0;align=left;spacingLeft=6;overflow=hidden;shadow=0;strokeWidth=1;fontSize=16;startSize=30;" parent="8j0XmkPAeqqN_narEKFB-278" vertex="1">
          <mxGeometry x="30" width="196" height="30" as="geometry">
            <mxRectangle width="196" height="30" as="alternateBounds" />
          </mxGeometry>
        </mxCell>
        <mxCell id="8j0XmkPAeqqN_narEKFB-281" value="" style="shape=tableRow;horizontal=0;startSize=0;swimlaneHead=0;swimlaneBody=0;fillColor=none;collapsible=0;dropTarget=0;points=[[0,0.5],[1,0.5]];portConstraint=eastwest;top=0;left=0;right=0;bottom=0;shadow=0;strokeWidth=1;fontSize=16;" parent="8j0XmkPAeqqN_narEKFB-271" vertex="1">
          <mxGeometry y="120" width="226" height="43" as="geometry" />
        </mxCell>
        <mxCell id="8j0XmkPAeqqN_narEKFB-282" value="" style="shape=partialRectangle;connectable=0;fillColor=none;top=0;left=0;bottom=0;right=0;editable=1;overflow=hidden;shadow=0;strokeWidth=1;fontSize=16;startSize=30;" parent="8j0XmkPAeqqN_narEKFB-281" vertex="1">
          <mxGeometry width="30" height="43" as="geometry">
            <mxRectangle width="30" height="43" as="alternateBounds" />
          </mxGeometry>
        </mxCell>
        <mxCell id="8j0XmkPAeqqN_narEKFB-283" value="post_about_event TEXT" style="shape=partialRectangle;connectable=0;fillColor=none;top=0;left=0;bottom=0;right=0;align=left;spacingLeft=6;overflow=hidden;shadow=0;strokeWidth=1;fontSize=16;startSize=30;" parent="8j0XmkPAeqqN_narEKFB-281" vertex="1">
          <mxGeometry x="30" width="196" height="43" as="geometry">
            <mxRectangle width="196" height="43" as="alternateBounds" />
          </mxGeometry>
        </mxCell>
        <mxCell id="8j0XmkPAeqqN_narEKFB-284" style="shape=tableRow;horizontal=0;startSize=0;swimlaneHead=0;swimlaneBody=0;fillColor=none;collapsible=0;dropTarget=0;points=[[0,0.5],[1,0.5]];portConstraint=eastwest;top=0;left=0;right=0;bottom=0;shadow=0;strokeWidth=1;fontSize=16;" parent="8j0XmkPAeqqN_narEKFB-271" vertex="1">
          <mxGeometry y="163" width="226" height="30" as="geometry" />
        </mxCell>
        <mxCell id="8j0XmkPAeqqN_narEKFB-285" value="fk" style="shape=partialRectangle;connectable=0;fillColor=none;top=0;left=0;bottom=0;right=0;editable=1;overflow=hidden;shadow=0;strokeWidth=1;fontSize=16;startSize=30;" parent="8j0XmkPAeqqN_narEKFB-284" vertex="1">
          <mxGeometry width="30" height="30" as="geometry">
            <mxRectangle width="30" height="30" as="alternateBounds" />
          </mxGeometry>
        </mxCell>
        <mxCell id="8j0XmkPAeqqN_narEKFB-286" value="type_of_event_id INT" style="shape=partialRectangle;connectable=0;fillColor=none;top=0;left=0;bottom=0;right=0;align=left;spacingLeft=6;overflow=hidden;shadow=0;strokeWidth=1;fontSize=16;startSize=30;" parent="8j0XmkPAeqqN_narEKFB-284" vertex="1">
          <mxGeometry x="30" width="196" height="30" as="geometry">
            <mxRectangle width="196" height="30" as="alternateBounds" />
          </mxGeometry>
        </mxCell>
        <mxCell id="aRnM5LxiaBGi5ICMTZ9n-30" value="User_stack" style="shape=table;startSize=30;container=1;collapsible=1;childLayout=tableLayout;fixedRows=1;rowLines=0;fontStyle=1;align=center;resizeLast=1;fontSize=16;" vertex="1" parent="1">
          <mxGeometry x="165" y="-1604" width="128" height="120" as="geometry" />
        </mxCell>
        <mxCell id="aRnM5LxiaBGi5ICMTZ9n-31" value="" style="shape=tableRow;horizontal=0;startSize=0;swimlaneHead=0;swimlaneBody=0;fillColor=none;collapsible=0;dropTarget=0;points=[[0,0.5],[1,0.5]];portConstraint=eastwest;top=0;left=0;right=0;bottom=1;fontSize=16;" vertex="1" parent="aRnM5LxiaBGi5ICMTZ9n-30">
          <mxGeometry y="30" width="128" height="30" as="geometry" />
        </mxCell>
        <mxCell id="aRnM5LxiaBGi5ICMTZ9n-32" value="PK" style="shape=partialRectangle;connectable=0;fillColor=none;top=0;left=0;bottom=0;right=0;fontStyle=1;overflow=hidden;fontSize=16;" vertex="1" parent="aRnM5LxiaBGi5ICMTZ9n-31">
          <mxGeometry width="30" height="30" as="geometry">
            <mxRectangle width="30" height="30" as="alternateBounds" />
          </mxGeometry>
        </mxCell>
        <mxCell id="aRnM5LxiaBGi5ICMTZ9n-33" value="id INT" style="shape=partialRectangle;connectable=0;fillColor=none;top=0;left=0;bottom=0;right=0;align=left;spacingLeft=6;fontStyle=5;overflow=hidden;fontSize=16;" vertex="1" parent="aRnM5LxiaBGi5ICMTZ9n-31">
          <mxGeometry x="30" width="98" height="30" as="geometry">
            <mxRectangle width="98" height="30" as="alternateBounds" />
          </mxGeometry>
        </mxCell>
        <mxCell id="aRnM5LxiaBGi5ICMTZ9n-34" value="" style="shape=tableRow;horizontal=0;startSize=0;swimlaneHead=0;swimlaneBody=0;fillColor=none;collapsible=0;dropTarget=0;points=[[0,0.5],[1,0.5]];portConstraint=eastwest;top=0;left=0;right=0;bottom=0;fontSize=16;" vertex="1" parent="aRnM5LxiaBGi5ICMTZ9n-30">
          <mxGeometry y="60" width="128" height="30" as="geometry" />
        </mxCell>
        <mxCell id="aRnM5LxiaBGi5ICMTZ9n-35" value="fk" style="shape=partialRectangle;connectable=0;fillColor=none;top=0;left=0;bottom=0;right=0;editable=1;overflow=hidden;fontSize=16;" vertex="1" parent="aRnM5LxiaBGi5ICMTZ9n-34">
          <mxGeometry width="30" height="30" as="geometry">
            <mxRectangle width="30" height="30" as="alternateBounds" />
          </mxGeometry>
        </mxCell>
        <mxCell id="aRnM5LxiaBGi5ICMTZ9n-36" value="stack_id INT" style="shape=partialRectangle;connectable=0;fillColor=none;top=0;left=0;bottom=0;right=0;align=left;spacingLeft=6;overflow=hidden;fontSize=16;" vertex="1" parent="aRnM5LxiaBGi5ICMTZ9n-34">
          <mxGeometry x="30" width="98" height="30" as="geometry">
            <mxRectangle width="98" height="30" as="alternateBounds" />
          </mxGeometry>
        </mxCell>
        <mxCell id="aRnM5LxiaBGi5ICMTZ9n-37" value="" style="shape=tableRow;horizontal=0;startSize=0;swimlaneHead=0;swimlaneBody=0;fillColor=none;collapsible=0;dropTarget=0;points=[[0,0.5],[1,0.5]];portConstraint=eastwest;top=0;left=0;right=0;bottom=0;fontSize=16;" vertex="1" parent="aRnM5LxiaBGi5ICMTZ9n-30">
          <mxGeometry y="90" width="128" height="30" as="geometry" />
        </mxCell>
        <mxCell id="aRnM5LxiaBGi5ICMTZ9n-38" value="fk" style="shape=partialRectangle;connectable=0;fillColor=none;top=0;left=0;bottom=0;right=0;editable=1;overflow=hidden;fontSize=16;" vertex="1" parent="aRnM5LxiaBGi5ICMTZ9n-37">
          <mxGeometry width="30" height="30" as="geometry">
            <mxRectangle width="30" height="30" as="alternateBounds" />
          </mxGeometry>
        </mxCell>
        <mxCell id="aRnM5LxiaBGi5ICMTZ9n-39" value="user_id INT" style="shape=partialRectangle;connectable=0;fillColor=none;top=0;left=0;bottom=0;right=0;align=left;spacingLeft=6;overflow=hidden;fontSize=16;" vertex="1" parent="aRnM5LxiaBGi5ICMTZ9n-37">
          <mxGeometry x="30" width="98" height="30" as="geometry">
            <mxRectangle width="98" height="30" as="alternateBounds" />
          </mxGeometry>
        </mxCell>
        <mxCell id="aRnM5LxiaBGi5ICMTZ9n-43" value="Event_stack" style="shape=table;startSize=27;container=1;collapsible=1;childLayout=tableLayout;fixedRows=1;rowLines=0;fontStyle=1;align=center;resizeLast=1;fontSize=16;" vertex="1" parent="1">
          <mxGeometry x="157" y="-1394" width="139" height="117" as="geometry" />
        </mxCell>
        <mxCell id="aRnM5LxiaBGi5ICMTZ9n-44" value="" style="shape=tableRow;horizontal=0;startSize=0;swimlaneHead=0;swimlaneBody=0;fillColor=none;collapsible=0;dropTarget=0;points=[[0,0.5],[1,0.5]];portConstraint=eastwest;top=0;left=0;right=0;bottom=1;fontSize=16;" vertex="1" parent="aRnM5LxiaBGi5ICMTZ9n-43">
          <mxGeometry y="27" width="139" height="30" as="geometry" />
        </mxCell>
        <mxCell id="aRnM5LxiaBGi5ICMTZ9n-45" value="PK" style="shape=partialRectangle;connectable=0;fillColor=none;top=0;left=0;bottom=0;right=0;fontStyle=1;overflow=hidden;fontSize=16;" vertex="1" parent="aRnM5LxiaBGi5ICMTZ9n-44">
          <mxGeometry width="30" height="30" as="geometry">
            <mxRectangle width="30" height="30" as="alternateBounds" />
          </mxGeometry>
        </mxCell>
        <mxCell id="aRnM5LxiaBGi5ICMTZ9n-46" value="id INT" style="shape=partialRectangle;connectable=0;fillColor=none;top=0;left=0;bottom=0;right=0;align=left;spacingLeft=6;fontStyle=5;overflow=hidden;fontSize=16;" vertex="1" parent="aRnM5LxiaBGi5ICMTZ9n-44">
          <mxGeometry x="30" width="109" height="30" as="geometry">
            <mxRectangle width="109" height="30" as="alternateBounds" />
          </mxGeometry>
        </mxCell>
        <mxCell id="aRnM5LxiaBGi5ICMTZ9n-47" value="" style="shape=tableRow;horizontal=0;startSize=0;swimlaneHead=0;swimlaneBody=0;fillColor=none;collapsible=0;dropTarget=0;points=[[0,0.5],[1,0.5]];portConstraint=eastwest;top=0;left=0;right=0;bottom=0;fontSize=16;" vertex="1" parent="aRnM5LxiaBGi5ICMTZ9n-43">
          <mxGeometry y="57" width="139" height="30" as="geometry" />
        </mxCell>
        <mxCell id="aRnM5LxiaBGi5ICMTZ9n-48" value="fk" style="shape=partialRectangle;connectable=0;fillColor=none;top=0;left=0;bottom=0;right=0;editable=1;overflow=hidden;fontSize=16;" vertex="1" parent="aRnM5LxiaBGi5ICMTZ9n-47">
          <mxGeometry width="30" height="30" as="geometry">
            <mxRectangle width="30" height="30" as="alternateBounds" />
          </mxGeometry>
        </mxCell>
        <mxCell id="aRnM5LxiaBGi5ICMTZ9n-49" value="event_id INT" style="shape=partialRectangle;connectable=0;fillColor=none;top=0;left=0;bottom=0;right=0;align=left;spacingLeft=6;overflow=hidden;fontSize=16;" vertex="1" parent="aRnM5LxiaBGi5ICMTZ9n-47">
          <mxGeometry x="30" width="109" height="30" as="geometry">
            <mxRectangle width="109" height="30" as="alternateBounds" />
          </mxGeometry>
        </mxCell>
        <mxCell id="aRnM5LxiaBGi5ICMTZ9n-50" value="" style="shape=tableRow;horizontal=0;startSize=0;swimlaneHead=0;swimlaneBody=0;fillColor=none;collapsible=0;dropTarget=0;points=[[0,0.5],[1,0.5]];portConstraint=eastwest;top=0;left=0;right=0;bottom=0;fontSize=16;" vertex="1" parent="aRnM5LxiaBGi5ICMTZ9n-43">
          <mxGeometry y="87" width="139" height="30" as="geometry" />
        </mxCell>
        <mxCell id="aRnM5LxiaBGi5ICMTZ9n-51" value="fk" style="shape=partialRectangle;connectable=0;fillColor=none;top=0;left=0;bottom=0;right=0;editable=1;overflow=hidden;fontSize=16;" vertex="1" parent="aRnM5LxiaBGi5ICMTZ9n-50">
          <mxGeometry width="30" height="30" as="geometry">
            <mxRectangle width="30" height="30" as="alternateBounds" />
          </mxGeometry>
        </mxCell>
        <mxCell id="aRnM5LxiaBGi5ICMTZ9n-52" value="event_id INT" style="shape=partialRectangle;connectable=0;fillColor=none;top=0;left=0;bottom=0;right=0;align=left;spacingLeft=6;overflow=hidden;fontSize=16;" vertex="1" parent="aRnM5LxiaBGi5ICMTZ9n-50">
          <mxGeometry x="30" width="109" height="30" as="geometry">
            <mxRectangle width="109" height="30" as="alternateBounds" />
          </mxGeometry>
        </mxCell>
        <mxCell id="aRnM5LxiaBGi5ICMTZ9n-69" value="Stack" style="shape=table;startSize=30;container=1;collapsible=1;childLayout=tableLayout;fixedRows=1;rowLines=0;fontStyle=1;align=center;resizeLast=1;fontSize=16;" vertex="1" parent="1">
          <mxGeometry x="352" y="-1473" width="154" height="91" as="geometry" />
        </mxCell>
        <mxCell id="aRnM5LxiaBGi5ICMTZ9n-70" value="" style="shape=tableRow;horizontal=0;startSize=0;swimlaneHead=0;swimlaneBody=0;fillColor=none;collapsible=0;dropTarget=0;points=[[0,0.5],[1,0.5]];portConstraint=eastwest;top=0;left=0;right=0;bottom=1;fontSize=16;" vertex="1" parent="aRnM5LxiaBGi5ICMTZ9n-69">
          <mxGeometry y="30" width="154" height="30" as="geometry" />
        </mxCell>
        <mxCell id="aRnM5LxiaBGi5ICMTZ9n-71" value="PK" style="shape=partialRectangle;connectable=0;fillColor=none;top=0;left=0;bottom=0;right=0;fontStyle=1;overflow=hidden;fontSize=16;" vertex="1" parent="aRnM5LxiaBGi5ICMTZ9n-70">
          <mxGeometry width="30" height="30" as="geometry">
            <mxRectangle width="30" height="30" as="alternateBounds" />
          </mxGeometry>
        </mxCell>
        <mxCell id="aRnM5LxiaBGi5ICMTZ9n-72" value="id INT" style="shape=partialRectangle;connectable=0;fillColor=none;top=0;left=0;bottom=0;right=0;align=left;spacingLeft=6;fontStyle=5;overflow=hidden;fontSize=16;" vertex="1" parent="aRnM5LxiaBGi5ICMTZ9n-70">
          <mxGeometry x="30" width="124" height="30" as="geometry">
            <mxRectangle width="124" height="30" as="alternateBounds" />
          </mxGeometry>
        </mxCell>
        <mxCell id="aRnM5LxiaBGi5ICMTZ9n-73" value="" style="shape=tableRow;horizontal=0;startSize=0;swimlaneHead=0;swimlaneBody=0;fillColor=none;collapsible=0;dropTarget=0;points=[[0,0.5],[1,0.5]];portConstraint=eastwest;top=0;left=0;right=0;bottom=0;fontSize=16;" vertex="1" parent="aRnM5LxiaBGi5ICMTZ9n-69">
          <mxGeometry y="60" width="154" height="30" as="geometry" />
        </mxCell>
        <mxCell id="aRnM5LxiaBGi5ICMTZ9n-74" value="" style="shape=partialRectangle;connectable=0;fillColor=none;top=0;left=0;bottom=0;right=0;editable=1;overflow=hidden;fontSize=16;" vertex="1" parent="aRnM5LxiaBGi5ICMTZ9n-73">
          <mxGeometry width="30" height="30" as="geometry">
            <mxRectangle width="30" height="30" as="alternateBounds" />
          </mxGeometry>
        </mxCell>
        <mxCell id="aRnM5LxiaBGi5ICMTZ9n-75" value="title VARCHAR" style="shape=partialRectangle;connectable=0;fillColor=none;top=0;left=0;bottom=0;right=0;align=left;spacingLeft=6;overflow=hidden;fontSize=16;" vertex="1" parent="aRnM5LxiaBGi5ICMTZ9n-73">
          <mxGeometry x="30" width="124" height="30" as="geometry">
            <mxRectangle width="124" height="30" as="alternateBounds" />
          </mxGeometry>
        </mxCell>
        <mxCell id="aRnM5LxiaBGi5ICMTZ9n-91" value="" style="strokeWidth=1;html=1;shape=mxgraph.flowchart.annotation_2;align=left;labelPosition=right;pointerEvents=1;fontSize=16;rotation=-180;" vertex="1" parent="1">
          <mxGeometry x="294" y="-1700" width="492" height="411" as="geometry" />
        </mxCell>
        <mxCell id="aRnM5LxiaBGi5ICMTZ9n-92" value="" style="strokeWidth=1;html=1;shape=mxgraph.flowchart.annotation_2;align=left;labelPosition=right;pointerEvents=1;fontSize=16;" vertex="1" parent="1">
          <mxGeometry x="-77" y="-1672" width="241" height="173" as="geometry" />
        </mxCell>
        <mxCell id="aRnM5LxiaBGi5ICMTZ9n-94" value="" style="shape=partialRectangle;whiteSpace=wrap;html=1;right=0;top=0;bottom=0;fillColor=none;routingCenterX=-0.5;strokeWidth=1;fontSize=16;" vertex="1" parent="1">
          <mxGeometry x="44" y="-1499" width="111" height="592" as="geometry" />
        </mxCell>
        <mxCell id="aRnM5LxiaBGi5ICMTZ9n-95" value="" style="shape=partialRectangle;whiteSpace=wrap;html=1;right=0;top=0;bottom=0;fillColor=none;routingCenterX=-0.5;strokeWidth=1;fontSize=16;rotation=-90;" vertex="1" parent="1">
          <mxGeometry x="26" y="-1008" width="120" height="82" as="geometry" />
        </mxCell>
        <mxCell id="aRnM5LxiaBGi5ICMTZ9n-96" value="" style="shape=partialRectangle;whiteSpace=wrap;html=1;right=0;top=0;bottom=0;fillColor=none;routingCenterX=-0.5;strokeWidth=1;fontSize=16;rotation=-90;" vertex="1" parent="1">
          <mxGeometry x="-478.5" y="-1710.5" width="119" height="120" as="geometry" />
        </mxCell>
        <mxCell id="aRnM5LxiaBGi5ICMTZ9n-98" value="" style="shape=partialRectangle;whiteSpace=wrap;html=1;right=0;top=0;bottom=0;fillColor=none;routingCenterX=-0.5;strokeWidth=1;fontSize=16;rotation=-90;" vertex="1" parent="1">
          <mxGeometry x="991" y="-1464.5" width="117" height="78" as="geometry" />
        </mxCell>
        <mxCell id="aRnM5LxiaBGi5ICMTZ9n-101" value="" style="strokeWidth=1;html=1;shape=mxgraph.flowchart.annotation_2;align=left;labelPosition=right;pointerEvents=1;fontSize=16;rotation=-180;" vertex="1" parent="1">
          <mxGeometry x="296" y="-1526" width="57" height="207" as="geometry" />
        </mxCell>
      </root>
    </mxGraphModel>
  </diagram>
</mxfile>
